<svg width="70" height="18" viewBox="0 0 70 18" fill="none" xmlns="http://www.w3.org/2000/svg">
<path d="M5.97529 10.628H5.02129V16.658H6.19129V17H0.341289V16.658H1.51129V4.742H0.341289V4.4H5.77729C7.33729 4.4 8.44129 4.484 9.08929 4.652C9.74929 4.808 10.2113 5 10.4753 5.228C11.0513 5.696 11.3393 6.44 11.3393 7.46C11.3393 8.48 11.0873 9.212 10.5833 9.656C10.0793 10.088 9.31129 10.346 8.27929 10.43V10.484C9.25129 10.616 9.92929 10.904 10.3133 11.348C10.6973 11.792 10.8893 12.536 10.8893 13.58V14.534C10.8893 15.158 10.9193 15.578 10.9793 15.794C11.0513 16.01 11.1953 16.118 11.4113 16.118C11.6273 16.118 11.7953 16.022 11.9153 15.83C12.0473 15.626 12.1673 15.206 12.2753 14.57L12.5813 14.606C12.4493 15.626 12.2153 16.31 11.8793 16.658C11.5553 17.006 10.9013 17.18 9.91729 17.18C8.93329 17.18 8.23129 16.952 7.81129 16.496C7.40329 16.028 7.19929 15.158 7.19929 13.886V12.572C7.19929 11.9 7.10929 11.408 6.92929 11.096C6.76129 10.784 6.44329 10.628 5.97529 10.628ZM5.02129 4.742V10.286H5.59729C6.28129 10.286 6.78529 10.076 7.10929 9.656C7.44529 9.236 7.61329 8.552 7.61329 7.604V7.082C7.61329 6.134 7.45129 5.51 7.12729 5.21C6.81529 4.898 6.31129 4.742 5.61529 4.742H5.02129ZM15.3341 4.4H24.6941L24.8741 7.964H24.5501C24.0461 6.752 23.5181 5.924 22.9661 5.48C22.4141 5.024 21.6041 4.796 20.5361 4.796H19.9061V10.358H20.5181C21.0821 10.358 21.5561 10.148 21.9401 9.728C22.3241 9.296 22.5941 8.72 22.7501 8H23.0201V13.328H22.7141C22.4981 12.428 22.2041 11.786 21.8321 11.402C21.4721 11.018 20.9741 10.826 20.3381 10.826H19.9061V16.604H20.5901C21.6941 16.604 22.6301 16.274 23.3981 15.614C24.1781 14.954 24.7121 14.108 25.0001 13.076H25.3601L25.2161 17H15.3341V16.604H16.3961V4.796H15.3341V4.4ZM39.0916 4.4L39.2716 8.918H38.9296C38.4016 7.322 37.9336 6.236 37.5256 5.66C37.1176 5.072 36.5296 4.778 35.7616 4.778H35.5456V16.622H37.0756V17H30.5056V16.622H32.0356V4.778H31.8016C31.0336 4.778 30.4396 5.084 30.0196 5.696C29.5996 6.296 29.1376 7.37 28.6336 8.918H28.2916L28.4716 4.4H39.0916ZM47.8347 10.628H46.8807V16.658H48.0507V17H42.2007V16.658H43.3707V4.742H42.2007V4.4H47.6367C49.1967 4.4 50.3007 4.484 50.9487 4.652C51.6087 4.808 52.0707 5 52.3347 5.228C52.9107 5.696 53.1987 6.44 53.1987 7.46C53.1987 8.48 52.9467 9.212 52.4427 9.656C51.9387 10.088 51.1707 10.346 50.1387 10.43V10.484C51.1107 10.616 51.7887 10.904 52.1727 11.348C52.5567 11.792 52.7487 12.536 52.7487 13.58V14.534C52.7487 15.158 52.7787 15.578 52.8387 15.794C52.9107 16.01 53.0547 16.118 53.2707 16.118C53.4867 16.118 53.6547 16.022 53.7747 15.83C53.9067 15.626 54.0267 15.206 54.1347 14.57L54.4407 14.606C54.3087 15.626 54.0747 16.31 53.7387 16.658C53.4147 17.006 52.7607 17.18 51.7767 17.18C50.7927 17.18 50.0907 16.952 49.6707 16.496C49.2627 16.028 49.0587 15.158 49.0587 13.886V12.572C49.0587 11.9 48.9687 11.408 48.7887 11.096C48.6207 10.784 48.3027 10.628 47.8347 10.628ZM46.8807 4.742V10.286H47.4567C48.1407 10.286 48.6447 10.076 48.9687 9.656C49.3047 9.236 49.4727 8.552 49.4727 7.604V7.082C49.4727 6.134 49.3107 5.51 48.9867 5.21C48.6747 4.898 48.1707 4.742 47.4747 4.742H46.8807ZM65.4819 11.438V10.106C65.4819 7.91 65.3739 6.524 65.1579 5.948C64.9179 5.288 64.5759 4.88 64.1319 4.724C63.8799 4.628 63.5739 4.58 63.2139 4.58C62.8539 4.58 62.5419 4.628 62.2779 4.724C62.0259 4.82 61.8159 4.988 61.6479 5.228C61.4799 5.468 61.3419 5.72 61.2339 5.984C61.1379 6.248 61.0599 6.62 60.9999 7.1C60.9279 7.796 60.8919 8.822 60.8919 10.178V11.474C60.8919 12.938 60.9459 13.982 61.0539 14.606C61.1739 15.218 61.3179 15.656 61.4859 15.92C61.8579 16.508 62.4339 16.802 63.2139 16.802C64.1619 16.802 64.7739 16.406 65.0499 15.614C65.3379 14.81 65.4819 13.418 65.4819 11.438ZM63.1779 17.18C61.1739 17.18 59.6739 16.64 58.6779 15.56C57.6939 14.468 57.2019 12.896 57.2019 10.844C57.2019 8.78 57.7299 7.16 58.7859 5.984C59.8539 4.796 61.3599 4.202 63.3039 4.202C65.2479 4.202 66.7119 4.766 67.6959 5.894C68.6919 7.01 69.1899 8.6 69.1899 10.664C69.1899 12.728 68.6859 14.33 67.6779 15.47C66.6819 16.61 65.1819 17.18 63.1779 17.18ZM60.4959 3.626L62.4039 0.961999C62.7399 0.769999 63.0699 0.673999 63.3939 0.673999C63.9579 0.673999 64.3779 0.913999 64.6539 1.394L65.9859 3.626L65.8239 3.806L63.2679 2.582L60.6399 3.806L60.4959 3.626Z" fill="#F8F9FA"/>
</svg>
